<?xml version="1.0"?>
<svg xmlns="http://www.w3.org/2000/svg" width="200" height="200">
  <defs>
    <clipPath>
      <path d="m0 0-11-5.5v11L0 0 0.2-11h10z"/>
    </clipPath>
    <clipPath>
      <path d="M0 0-11-11V11L0 0v-11h11z"/>
    </clipPath>
    <clipPath>
      <path d="m0 0-11-5.5v11L0 0 0.2-11h10z"/>
    </clipPath>
    <clipPath>
      <path d="M0 0-11-11V11L0 0v-11h11z"/>
    </clipPath>
  </defs>
  <path fill="#66CDAA" d="m21.5 2.4 156.8 0c10.2 0 18.5 8.3 18.5 18.6l0 158.2c0 10.3-8.2 18.6-18.5 18.6l-156.8 0c-10.2 0-18.5-8.3-18.5-18.6l0-158.2c0-10.3 8.2-18.6 18.5-18.6z"/>
  <path fill="#fff" d="m88.7 175.9c0-0.9 5.2-87.9 5.4-89.8l0.2-2-17.5 0-17.5 0-14.1 35.3C37.5 138.9 29.2 159.6 26.8 165.6l-4.3 10.8 33.1 0c25.3 0 33.1-0.1 33.1-0.4zm92-0.2c-0.8-2.2-34.6-88.9-35.1-90.1l-0.6-1.5-18 0c-16 0-18 0.1-18 0.5 0 0.3 1.4 20.7 3.2 45.3 1.7 24.6 3.2 45.1 3.2 45.6l0 0.8 32.8 0c31.1 0 32.8 0 32.6-0.6zM49.6 80.2l1.4-5.2 50.2 0 50.2 0 1.4 5.2 1.4 5.2 3.9 0.1 3.9 0.1 0-5.3 0-5.3 8.9 0 8.9 0 0-4 0-4-78.6 0.1-78.6 0.1 0 3.9 0 3.9 9.4 0.1 9.4 0.1 0 5.3 0 5.3 3.4-0.1 3.4-0.1 1.4-5.2zM96.1 63.6c0-0.7 2.8-40.1 3-41.6l0.2-2-7.8 0.1-7.8 0.1-7.8 20c-4.3 11-8.1 20.8-8.5 21.8l-0.7 1.8 14.7 0c8.1 0 14.7-0.1 14.7-0.2zm40.3-0.1c0-0.2-3.7-10-8.2-21.8-4.5-11.8-8.2-21.6-8.2-21.6 0-0.1-3.3-0.1-7.4-0.1l-7.4 0 0.2 2c0.2 2.3 2.6 40.1 2.6 41.1 0 0.7 0.3 0.7 14.2 0.7 7.8 0 14.2-0.1 14.2-0.3z"/>
</svg>
